<svg width="187" height="106" viewBox="0 0 187 106" fill="none" xmlns="http://www.w3.org/2000/svg">
<path d="M41.3016 58.7828C42.4577 59.9104 43.6167 61.0322 44.7679 62.1637C47.0889 64.4432 49.4098 66.7227 51.7161 69.0169C52.0112 69.3109 52.2382 69.3742 52.6541 69.2243C54.339 68.6167 56.172 69.2418 57.106 70.6868C58.08 72.1932 57.8881 74.0998 56.6376 75.3433C55.4016 76.5721 53.4332 76.8136 51.9635 75.9158C50.4364 74.983 49.7604 73.1884 50.3594 71.5135C50.5036 71.1094 50.4539 70.8777 50.15 70.5817C46.7899 67.2972 43.4385 64.004 40.1046 60.6923C39.752 60.3428 39.5368 60.3603 39.1472 60.6174C36.1834 62.5756 32.3129 62.5785 29.3375 60.6106C28.8982 60.3204 28.6869 60.3769 28.3382 60.7225C24.6381 64.3877 20.9186 68.0353 17.2059 71.6888C17.0715 71.8212 16.9507 71.9673 16.7949 72.1387C17.6568 73.2186 18.1866 74.4143 18.3279 75.7737C18.6902 79.2665 16.1491 82.3776 12.4978 82.8917C9.12884 83.3669 5.74141 80.9247 5.17749 77.5692C4.73628 74.945 5.58558 72.7551 7.74484 71.1601C9.8408 69.6118 12.1578 69.4385 14.545 70.4814C14.9317 70.6498 15.1391 70.6109 15.4216 70.3324C19.2327 66.5669 23.0525 62.8093 26.8792 59.0584C27.1344 58.8082 27.1763 58.6426 26.9649 58.3203C24.9274 55.219 24.8251 52.0426 26.6698 48.8244C26.8422 48.5235 26.8227 48.356 26.5831 48.1233C24.3275 45.9295 22.0883 43.7181 19.8171 41.5418C19.6466 41.3782 19.2375 41.349 18.9726 41.4055C17.1659 41.7872 15.4079 40.7569 14.9463 39.0081C14.4885 37.2719 15.5365 35.4871 17.2945 35.007C19.0564 34.526 20.9098 35.4997 21.3637 37.2661C21.5273 37.9049 21.3432 38.6274 21.3403 39.3119C21.3403 39.5339 21.3286 39.8358 21.4601 39.9663C23.7051 42.2 25.9725 44.4124 28.2369 46.6267C28.2798 46.6685 28.346 46.688 28.4415 46.7396C29.7699 45.6393 31.3127 44.9557 33.0765 44.684C33.0765 40.1941 33.0765 35.7315 33.0765 31.2377C32.6343 31.1013 32.1815 30.9864 31.7471 30.8228C28.5651 29.6212 26.7555 26.2959 27.4733 22.9901C28.1795 19.7426 31.2318 17.4855 34.6982 17.6491C37.957 17.802 40.7727 20.4311 41.1448 23.6697C41.5295 27.0204 39.3839 30.1724 36.088 31.0244C35.5299 31.1685 35.3575 31.3779 35.3614 31.9504C35.3897 35.9788 35.3858 40.0081 35.3614 44.0375C35.3585 44.539 35.5075 44.7152 36.0052 44.8087C38.0836 45.1953 39.7705 46.2615 41.1691 47.8633C41.3182 47.7805 41.4681 47.7134 41.5996 47.6208C46.3837 44.2722 51.162 40.9147 55.9548 37.5796C56.3483 37.306 56.4038 37.1015 56.2246 36.6643C54.9487 33.5483 56.6376 30.0468 59.8818 29.0214C63.1007 28.0029 66.5398 29.8559 67.3852 33.0634C68.2413 36.3108 66.1492 39.6118 62.8086 40.2302C61.1791 40.531 59.6471 40.2243 58.2894 39.2632C57.9563 39.0266 57.7391 39.0198 57.4002 39.2584C52.5401 42.683 47.6703 46.094 42.7986 49.5021C42.557 49.6715 42.3632 49.7884 42.4996 50.1497C43.6235 53.142 43.2271 55.9463 41.3805 58.5599C41.3571 58.593 41.3513 58.6378 41.2997 58.7848L41.3016 58.7828Z" fill="white"/>
<path d="M66.4951 62.0205C66.2974 62.4723 66.0149 62.67 65.563 62.67C65.1111 62.67 64.8004 62.4723 64.631 62.0205L58.8408 46.686H55.1689L61.5523 63.6301C62.2584 65.4939 63.6989 66.0869 65.563 66.0869C67.5402 66.0869 68.8394 65.4091 69.5455 63.6301L76.2678 46.686H72.5677L66.4951 62.0205Z" fill="white"/>
<path d="M81.9168 50.838H78.9229V65.7489H81.9168V50.838Z" fill="white"/>
<path d="M89.7697 47.3073H86.7475V50.8371H84.7139V53.7174H86.7475V60.6086C86.7475 64.5055 88.075 65.748 91.1537 65.748H93.8369V63.0088H91.7751C90.3628 63.0088 89.7697 62.4441 89.7697 60.778V53.7174H93.8934V50.8371H89.7697V47.3073Z" fill="white"/>
<path d="M106.351 50.838H97.396V53.7183H106.322C107.961 53.7183 108.61 54.622 108.61 55.7798V56.9093H101.521C97.8489 56.9093 96.4932 58.4906 96.4932 61.2015C96.4932 63.9124 97.9619 65.7479 101.492 65.7479H108.47C110.984 65.7479 111.549 64.9008 111.549 62.7547V55.7515C111.549 52.9277 110.08 50.838 106.352 50.838H106.351ZM108.61 62.0779C108.61 62.6144 108.384 62.8403 107.791 62.8403H101.521C100.024 62.8403 99.4306 62.1344 99.4306 61.0331C99.4306 59.9318 99.9955 59.2823 101.577 59.2823H108.61V62.0779Z" fill="white"/>
<path d="M118.778 44.3705H115.784V65.748H118.778V44.3705Z" fill="white"/>
<path d="M156.798 59.7614C156.798 61.5122 155.527 62.8394 153.154 62.8394H150.725C148.353 62.8394 147.053 61.5122 147.053 59.7614V50.837H144.031V59.8743C144.031 63.3194 146.234 65.7479 150.499 65.7479H153.267C157.532 65.7479 159.735 63.3194 159.735 59.8743V50.837H156.798V59.7614Z" fill="white"/>
<path d="M173.548 50.8381H166.937V47.1817C167.522 46.7221 167.899 46.0103 167.899 45.2089C167.899 43.8213 166.774 42.6976 165.387 42.6976C164 42.6976 162.875 43.8223 162.875 45.2089C162.875 46.059 163.299 46.8088 163.944 47.2625V59.3671C163.944 63.6594 165.837 65.749 169.424 65.749H173.548C177.502 65.749 179.987 63.3205 179.987 58.2931C179.987 53.2656 177.502 50.8381 173.548 50.8381ZM173.237 62.8404H170.299C167.87 62.8404 166.938 61.7674 166.938 59.2259V53.7184H173.237C175.835 53.7184 176.965 55.0739 176.965 58.2931C176.965 61.5123 175.835 62.8395 173.237 62.8395V62.8404Z" fill="white"/>
<path d="M80.4738 49.394C81.861 49.394 82.9856 48.2697 82.9856 46.8827C82.9856 45.4958 81.861 44.3715 80.4738 44.3715C79.0865 44.3715 77.9619 45.4958 77.9619 46.8827C77.9619 48.2697 79.0865 49.394 80.4738 49.394Z" fill="white"/>
<path d="M139.68 64.0138V46.6861H136.319V54.4526H126.574V47.0366C127.062 46.579 127.367 45.9295 127.367 45.2079C127.367 43.8204 126.242 42.6967 124.856 42.6967C123.469 42.6967 122.344 43.8213 122.344 45.2079C122.344 45.9801 122.692 46.6705 123.241 47.1311V65.749H126.574V57.7857H136.319V63.8677C135.762 64.3283 135.406 65.0245 135.406 65.8035C135.406 67.1911 136.531 68.3148 137.918 68.3148C139.305 68.3148 140.43 67.1901 140.43 65.8035C140.43 65.1024 140.142 64.4695 139.679 64.0138H139.68Z" fill="white"/>
</svg>
